<svg xmlns="http://www.w3.org/2000/svg" viewBox="0 0 73 73.9"><defs><style>.cls-1{fill:#073b4c;}</style></defs><title>Ring</title><g id="Capa_2" data-name="Capa 2"><g id="Layer_1" data-name="Layer 1"><g id="Ring"><path class="cls-1" d="M57.3,16.7a1,1,0,0,0,1.4,0l4.1-4.1A4,4,0,0,0,64,9.8a4,4,0,0,0-6-3.4,3.93,3.93,0,0,0-4.8.6,4,4,0,0,0,0,5.6ZM54.6,8.5A1.82,1.82,0,0,1,56,7.9a2,2,0,0,1,1.4.6,1,1,0,0,0,1.4,0,2,2,0,0,1,2.7,0,1.82,1.82,0,0,1,.6,1.4,1.82,1.82,0,0,1-.6,1.4l-3.4,3.4-3.4-3.4A1.86,1.86,0,0,1,54.6,8.5Z"/><path class="cls-1" d="M8,62.5a3.81,3.81,0,0,0-4.8.6,4,4,0,0,0,0,5.6l4.1,4.1a1,1,0,0,0,1.4,0l4.1-4.1a4,4,0,0,0,0-5.6A3.93,3.93,0,0,0,8,62.5Zm3.4,4.7L8,70.6,4.6,67.2a1.82,1.82,0,0,1,0-2.7,1.93,1.93,0,0,1,2.8,0,1,1,0,0,0,1.4,0,2,2,0,0,1,2.7,0A1.91,1.91,0,0,1,11.4,67.2Z"/><path class="cls-1" d="M48.3,23.9A25,25,0,0,0,28.6,8.2l2.2-2.6V5.5h0V5.4a.1.1,0,0,1,.1-.1V4.6l-2-4A1.15,1.15,0,0,0,28,0H22a1,1,0,0,0-.9.6l-2,4c0,.1-.1.2-.1.3h0v.4c0,.1,0,.1.1.2v.2a.1.1,0,0,0,.1.1h0l2.2,2.6A24.56,24.56,0,0,0,0,32.9a25,25,0,0,0,24.7,25,25,25,0,1,0,23.6-34ZM49.9,31a18,18,0,1,1-18,25.9A24.87,24.87,0,0,0,50,32.9,12.75,12.75,0,0,0,49.9,31ZM27.4,1.9l1,2H21.6l1-2Zm-5.3,4h5.7l-1.7,2H23.7Zm1.9,50A23,23,0,1,1,46.8,25.5c.1.3.2.5.3.8,0,.1.1.2.1.3a2.92,2.92,0,0,1,.2.9v.2a3.55,3.55,0,0,1,.2,1v.1c.1.4.1.8.2,1.2v.1l.1.4a17.7,17.7,0,0,1,.1,2.3A23,23,0,0,1,31.1,55c-.1-.1-.1-.3-.2-.4a1.85,1.85,0,0,1-.2-.7,1.27,1.27,0,0,1-.1-.6c-.1-.4-.2-.7-.3-1.1A19.93,19.93,0,0,0,45,32.9a9.15,9.15,0,0,0-.1-1.7h0V31c0-.2-.1-.4-.1-.6v-.2a10.62,10.62,0,0,0-.4-1.9c-.1-.3-.1-.6-.2-.8s-.1-.4-.2-.6l-.6-1.5-.3-.8h0A19.84,19.84,0,0,0,25,12.9a20,20,0,0,0-1.7,39.9l.3,1.5v.2l.3,1.2C24,55.8,24,55.8,24,55.9Zm6-7A18,18,0,0,1,42.9,31.6c0,.4.1.8.1,1.3A18,18,0,0,1,30.1,50.2,6.15,6.15,0,0,1,30,48.9Zm-6.9,1.9a18,18,0,1,1,18-25.9A24.87,24.87,0,0,0,23,48.9,12.75,12.75,0,0,0,23.1,50.8ZM48,71.9A23.16,23.16,0,0,1,26.2,56.3a2.35,2.35,0,0,1-.2-.8c0-.1-.1-.2-.1-.3a2.92,2.92,0,0,1-.2-.9c0-.1,0-.1-.1-.2-.1-.3-.1-.7-.2-1V53c-.1-.4-.1-.7-.2-1.1a.6.6,0,0,0-.1-.4v-.1a17.7,17.7,0,0,1-.1-2.3A23,23,0,0,1,41.9,26.9c.1.1.1.3.2.4a2.35,2.35,0,0,1,.2.8,1.09,1.09,0,0,1,.1.5l.3,1.2A19.52,19.52,0,0,0,28,48.9a9.15,9.15,0,0,0,.1,1.7h0v.2c0,.2.1.4.1.7v.3a10.62,10.62,0,0,0,.4,1.9c.1.3.1.6.2.9s.1.4.2.6c.2.5.4,1,.6,1.6l.3.8h0A20.06,20.06,0,0,0,68,48.9,19.94,19.94,0,0,0,49.7,29l-.3-1.5v-.2l-.3-1.2v-.2a23,23,0,0,1-1.1,46Z"/></g></g></g></svg>